<svg width="49" height="49" viewBox="0 0 49 49" fill="none" xmlns="http://www.w3.org/2000/svg">
<rect width="49" height="49" rx="24.5" fill="#ECE8FC"/>
<path d="M28.5 15.5H20.5M28.5 15.5C30.1569 15.5 31.5 16.8431 31.5 18.5V30.5C31.5 32.1569 30.1569 33.5 28.5 33.5H20.5C18.8431 33.5 17.5 32.1569 17.5 30.5V18.5C17.5 16.8431 18.8431 15.5 20.5 15.5M28.5 15.5H28.3889C27.4684 15.5 26.7222 16.2462 26.7222 17.1667C26.7222 17.3508 26.573 17.5 26.3889 17.5H22.6111C22.427 17.5 22.2778 17.3508 22.2778 17.1667C22.2778 16.2462 21.5316 15.5 20.6111 15.5H20.5" stroke="#937FF1" stroke-width="2"/>
</svg>
