<svg width="20" height="16" viewBox="0 0 20 16" fill="none" xmlns="http://www.w3.org/2000/svg">
<path d="M4.1697 7.23171V9.35537C4.1697 10.9064 4.1697 11.682 4.37363 12.3096C4.78579 13.5781 5.78031 14.5726 7.0488 14.9848C7.67644 15.1887 8.45197 15.1887 10.003 15.1887C11.5541 15.1887 12.3296 15.1887 12.9573 14.9848C14.2258 14.5726 15.2203 13.5781 15.6324 12.3096C15.8364 11.682 15.8364 10.9064 15.8364 9.35537V7.23444M15.8364 7.23444C15.0387 7.55776 14.0532 7.90894 12.8804 8.32778L11.1243 8.95499C10.5693 9.15319 10.2918 9.2523 10.0031 9.2523C9.71443 9.2523 9.43695 9.15319 8.88199 8.95499L7.12583 8.32778C3.45861 7.01804 1.625 6.36317 1.625 5.18865C1.625 4.01412 3.45861 3.35925 7.12583 2.04951L8.88199 1.4223C9.43695 1.2241 9.71443 1.125 10.0031 1.125C10.2918 1.125 10.5693 1.2241 11.1243 1.4223L12.8804 2.04951C16.5476 3.35925 18.3813 4.01412 18.3813 5.18865C18.3813 5.98757 17.5331 6.54674 15.8364 7.23444Z" stroke="white" stroke-width="1.5"/>
</svg>
