<svg width="14"  viewBox="0 0 14 19" fill="none" xmlns="http://www.w3.org/2000/svg">
<path d="M9.58073 5.00033C9.58073 6.42706 8.42413 7.58366 6.9974 7.58366V9.08366C9.25256 9.08366 11.0807 7.25549 11.0807 5.00033H9.58073ZM6.9974 7.58366C5.57066 7.58366 4.41406 6.42706 4.41406 5.00033H2.91406C2.91406 7.25549 4.74223 9.08366 6.9974 9.08366V7.58366ZM4.41406 5.00033C4.41406 3.57359 5.57066 2.41699 6.9974 2.41699V0.916992C4.74223 0.916992 2.91406 2.74516 2.91406 5.00033H4.41406ZM6.9974 2.41699C8.42413 2.41699 9.58073 3.57359 9.58073 5.00033H11.0807C11.0807 2.74516 9.25256 0.916992 6.9974 0.916992V2.41699ZM4.4974 11.5837H9.4974V10.0837H4.4974V11.5837ZM9.4974 16.7503H4.4974V18.2503H9.4974V16.7503ZM4.4974 16.7503C3.07066 16.7503 1.91406 15.5937 1.91406 14.167H0.414062C0.414062 16.4222 2.24223 18.2503 4.4974 18.2503V16.7503ZM12.0807 14.167C12.0807 15.5937 10.9241 16.7503 9.4974 16.7503V18.2503C11.7526 18.2503 13.5807 16.4222 13.5807 14.167H12.0807ZM9.4974 11.5837C10.9241 11.5837 12.0807 12.7403 12.0807 14.167H13.5807C13.5807 11.9118 11.7526 10.0837 9.4974 10.0837V11.5837ZM4.4974 10.0837C2.24223 10.0837 0.414062 11.9118 0.414062 14.167H1.91406C1.91406 12.7403 3.07066 11.5837 4.4974 11.5837V10.0837Z" fill="white"/>
</svg>
